Patient4_TMGait_0pt6_01_right_25_EMG.mot
version=1
nRows=30
nColumns=33
inDegrees=no
endheader
time	1LAddLong	2LGlutMax	3LGlutMed	4LIliopsoas	5LSemiMemb	6LBicFemLong	7LRecFem	8LVastMed	9LVastLat	10LGasMed	11LTibAnt	12lTibPost	13LPeroneusLong	14LSol	15LExtDigLong	16LFlexDigLong	17RAddLong	18RGlutMax	19RGlutMed	20RIliopsoas	21RSemiMemb	22RBicFemLong	23RRecFem	24RVastMed	25RVastLat	26RGasMed	27RTibAnt	28RTibPost	29RPeroneusLong	30RSol	31RExtDigLong	32RFlexDigLong
30.252	-0.007629	0.020752	-0.15198	-0.026093	-0.004425	0.011597	0.3537	0.021667	-0.004883	0.058899	0.016327	-0.005493	-0.07309	-0.054169	-0.042419	-0.027008	0.062103	-0.17166	0.20493	0.11643	-0.030975	-0.41687	0.22934	-0.051575	-0.10864	-0.016937	-0.005951	-0.027161	1.1717	-0.19669	0.000153	-0.021667
30.253	-0.004425	0.04364	-0.18051	-0.035858	-0.001678	0.027161	0.42358	0.016327	0.016022	0.063782	0.048981	0.00412	-0.065765	-0.030365	0.012817	-0.001678	-0.001068	-0.112	0.31418	0.074463	-0.067596	-0.37247	0.20203	-0.043488	-0.069427	-0.027771	0.10452	-0.028534	-0.37155	-0.15045	-0.003052	-0.020599
30.254	-0.004578	0.010529	-0.19821	-0.036469	-0.002747	0.034485	0.46081	0.016327	0.010071	0.074005	0.040436	-0.006866	-0.06897	-0.003662	0.047302	-0.002441	-0.10712	-0.23163	0.11093	0.071411	0.25116	-0.47913	0.22354	-0.034332	-0.075989	-0.026398	0.15381	-0.029449	-1.8141	0.028992	-0.001678	-0.023956
30.255	-0.003204	0.025482	-0.19287	-0.00824	-0.007324	0.037231	0.48477	0.017853	0.023956	0.076752	0.036621	-0.009308	-0.068054	0.06897	0.084991	-0.007629	-0.027313	-0.3244	0.023193	0.06424	0.19531	-0.63873	0.28122	-0.087128	-0.11551	-0.006561	0.19348	-0.029297	-0.92316	0.076447	-0.002747	-0.00885
30.256	-0.001373	0.043945	-0.20065	-0.018311	0.005493	0.055847	0.50186	0.019073	0.02655	0.072632	0.06134	-0.002289	-0.06134	0.083618	0.040131	-0.006256	0.016632	-0.31082	0.37277	-0.001831	-0.016479	-0.73639	0.30853	-0.14008	-0.084991	0.048218	0.10986	-0.042572	0.38055	0.007324	-0.001068	-0.007019
30.257	-0.000458	0.075836	-0.16602	-0.031281	0.001526	0.040436	0.43167	0.019684	0.030518	0.070496	0.05188	-0.007629	-0.047607	0.069122	0.003662	-0.011139	-0.012817	-0.31952	0.3241	-0.042572	-0.093536	-0.74265	0.33508	-0.19898	-0.063629	0.11978	-0.042877	-0.061035	-0.035095	-0.034637	0.000916	-0.00946
30.258	-0.001373	0.058899	-0.15549	-0.061188	0.003052	0.013123	0.35294	0.021515	0.034027	0.051117	0.1059	-0.008392	-0.02182	0.053101	-0.005646	-0.009766	-0.044861	-0.42557	-0.4512	-0.025482	0.04776	-0.85754	0.3688	-0.25986	-0.048981	0.12146	-0.21637	-0.17731	0.40527	-0.17273	0.001068	-0.006104
30.259	-0.002136	0.032959	-0.1648	-0.038452	0.007935	0.018616	0.31204	0.021515	0.048676	0.070038	0.098877	-0.003204	-0.061035	0.042725	0.16647	-0.011749	-0.047607	-0.53604	-0.67139	-0.0177	0.049744	-0.9697	0.3418	-0.18784	-0.037079	0.054626	-0.23956	-0.22476	2.0612	-0.1973	-0.00061	-0.004883
30.26	-0.000763	0.059052	-0.16281	-0.019989	0.005035	0.016479	0.27039	0.015564	0.065002	0.092926	-0.13199	-0.001678	-0.12573	0.030823	0.25696	-0.009308	-0.047302	-0.53619	-0.40771	0.0177	0.010071	-0.74783	0.2623	-0.074463	-0.035095	-0.018768	-0.030518	0.1329	0.45853	-0.22995	-0.002136	-0.018921
30.261	-0.003815	0.099182	-0.16708	0.028076	0.000458	-0.007629	0.31677	0.018768	0.078583	0.08728	0.058746	0.003662	-0.11978	0.12039	0.090027	-0.007782	-0.040283	-0.66544	-0.036163	0.011139	-0.19943	-0.48157	0.22903	-0.077667	-0.023041	-0.079041	-0.067749	-0.009918	-1.0463	-0.72952	-0.001678	-0.019989
30.262	0.000916	0.10773	-0.15961	0.050354	-0.002747	0.000763	0.41397	0.017395	0.1059	0.076447	0.068054	0.006256	-0.057373	0.21683	0.070343	0.006104	-0.035858	-0.72723	0.26932	-0.009003	-0.27222	-0.28778	0.29022	0.13916	-0.028839	-0.1207	-0.10284	-0.018921	0.046692	-0.69351	-0.000153	-0.027466
30.263	-0.002747	0.15991	-0.16113	0.035553	0.000153	-0.011292	0.46112	0.023804	0.11124	0.062714	-0.016174	0.02121	-0.026245	0.27374	0.074768	0.002594	-0.070953	-0.73074	-0.020752	0.08255	-0.14511	-0.18112	0.24841	0.45639	-0.007629	-0.10178	-0.051422	-0.045319	0.02655	-0.12543	0.000153	-0.026245
30.264	-0.000916	0.21774	-0.15915	0.023346	0.007935	-0.001831	0.46265	0.019073	0.1265	0.045166	-0.048676	0.007629	-0.036163	0.25757	0.18616	0.003204	-0.070648	-0.66345	0.271	0.043945	0.021362	0.057678	0.27817	0.49027	0.22903	-0.068207	-0.032654	-0.18707	0.03479	0.59921	0.000916	-0.026703
30.265	0.010529	0.31555	-0.15259	0.017853	0.007782	-0.001831	0.45746	0.025482	0.14267	0.055084	0.009766	0.008698	-0.06073	0.18158	-0.26474	-0.017395	-0.041351	-0.57877	0.45853	-0.052948	0.076141	-0.047913	0.22492	0.27237	0.3746	-0.13977	-0.062866	0.15533	-0.61478	1.0126	-0.001831	-0.011597
30.266	0.004578	0.39383	-0.15411	0.002441	-0.005646	-0.007935	0.42313	0.019531	0.15335	0.071564	-0.007935	-0.001831	-0.085602	0.15091	-0.12528	0.00351	-0.026703	-0.57434	0.38147	-0.066528	-0.062561	-0.21698	0.18143	0.22659	0.25223	-0.13046	-0.072327	0.27847	-0.011444	0.93994	-0.001678	-0.00473
30.267	0.014191	0.41931	-0.16953	-0.009155	0.022278	-0.027466	0.41977	0.011292	0.13702	0.082703	-0.20065	0.004425	-0.087738	0.15213	-0.21576	-0.006256	-0.032349	-0.81634	-0.28259	-0.035858	-0.061951	-0.37659	0.29312	0.13275	0.15396	-0.005493	-0.095825	0.083466	-0.17822	0.7045	-0.001526	-0.000305
30.268	0.011444	0.46158	-0.17441	-0.021057	-0.008392	-0.031891	0.47394	0.014801	0.10376	0.074615	-0.22949	-0.00412	-0.11139	0.13184	-0.041809	-0.010376	-0.014954	-0.96176	0.001526	-0.094452	0.032043	-0.5545	0.37231	0.14633	0.074463	0.053864	0.015717	0.11444	-0.30777	0.92209	-0.002136	-0.003052
30.269	0.016785	0.51041	-0.16907	-0.013275	0.023651	-0.040436	0.45075	0.014343	0.086517	0.06958	-0.16342	0.00473	-0.072021	0.12131	0.33859	0.008545	-0.010376	-1.0098	-0.50552	-0.038757	-0.11261	-0.47699	0.20432	0.13275	-0.037842	0.052338	0.058441	0.22919	0.33798	0.49271	-0.000763	-0.001221
30.27	0.005646	0.55115	-0.18127	0.019073	0.023651	-0.027313	0.36697	0.008392	0.078278	0.048218	-0.15228	0.003204	-0.005951	0.073547	0.04715	-0.00412	-0.047302	-0.96069	-0.22324	0.068512	-0.33798	-0.26916	-0.03479	0.28168	-0.48126	0.017242	0.055542	0.094757	0.69214	-0.01709	-0.00061	0.004578
30.271	0.012512	0.61005	-0.19241	0.01297	0.002441	-0.013275	0.41733	-0.002899	0.066833	0.04303	-0.052795	0.013428	-0.007324	-0.049286	0.3775	0.016327	-0.046997	-0.9996	-0.084991	0.002136	-0.057526	-0.45929	-0.23056	0.21896	-0.68085	0.015717	0.014648	-0.004425	0.56274	-0.29633	-0.001678	0.005951
30.272	0.011139	0.62485	-0.19608	0.011292	0.006104	-0.006561	0.5217	0.005341	0.078278	0.045776	0.13809	0.006409	0.001831	0.0383	-0.47272	0.01358	-0.024109	-1.1372	-0.078278	0.021667	0.17532	-0.68436	-0.23392	0.10559	-0.57419	0.022125	0.060577	-0.020905	-0.049286	-0.30716	-0.003052	-0.001984
30.273	0.01709	0.70374	-0.17349	0.001831	0.012817	-0.006409	0.60623	0.002747	0.075378	0.058746	0.27725	0.008545	-0.048981	0.12772	-0.15472	0.021362	-0.016022	-1.2894	0.47943	-0.006104	0.077972	-0.79407	-0.15961	0.12024	-0.21652	0.020905	0.11215	-0.036011	-0.13763	-0.11429	0.002289	-0.000153
30.274	0.013428	0.68619	-0.15869	0.025482	-0.013733	-0.004272	0.55374	0.003052	0.038757	0.086823	0.24658	0.001221	-0.076141	0.18356	-0.050812	-0.000305	-0.006714	-1.4519	0.30029	0.041809	0.008392	-0.77057	-0.083771	-0.052795	-0.098114	0.016785	0.10925	-0.046844	-0.44403	-0.0737	-0.002594	0.004578
30.275	0.010529	0.72418	-0.1741	0.00946	-0.00351	-0.007629	0.46646	0.005493	-0.005493	0.11658	0.14069	0.003662	-0.072784	0.10468	-0.12756	-0.003052	0.02182	-1.6106	-0.54764	0.057373	0.003204	-0.76858	0.15411	-0.19928	-0.040436	0.005646	0.064392	-0.049896	-0.25757	-0.25879	0	0.009766
30.276	0.012817	0.76172	-0.17456	-0.005341	0.028229	-0.013885	0.4454	0.007629	-0.021362	0.098724	-0.13687	0.014954	-0.018158	0.072021	-0.30579	0.000153	0.03006	-1.6931	-0.49408	-0.00351	-0.076752	-0.71869	0.14908	-0.20355	-0.012054	0.02533	0.019531	-0.04303	-0.037537	-0.50491	-0.00061	-0.003967
30.277	0.011749	0.78354	-0.19714	-0.019531	0.027008	-0.032959	0.30441	0.003357	-0.048523	0.022583	-0.019989	0.011444	0.10239	0.15976	-0.18005	0.020905	0.045471	-1.6473	0.027771	-0.0177	-0.009766	-0.73013	0.12375	-0.16144	-0.029755	0.023499	0.045319	-0.046234	-0.017853	-0.83801	-0.000458	0.00412
30.278	0.014648	0.81009	-0.24475	0.003967	0.023346	-0.021362	0.13519	0.018921	-0.050049	-0.019379	0.12497	0.006256	0.13443	0.2594	0.18814	0.018768	0.023956	-1.7125	-0.056	-0.003052	0.032043	-0.66818	0.10437	-0.11795	-0.029907	0.002747	0.020905	-0.039673	-0.045013	-0.58868	0.002594	0.00351
30.279	0.014038	0.8635	-0.23239	-0.001373	0.006104	-0.031891	0.051575	0.018616	-0.054169	-0.005798	0.19379	0.007019	0.070801	0.2211	0.33325	0.015564	0.00473	-1.7123	-0.22186	-0.007477	-0.082092	-0.5159	0.083313	-0.07309	-0.070648	-0.040741	0.021667	-0.069885	-0.032806	0.015564	-0.002747	0.00061
30.28	0.016937	0.84061	-0.21316	-0.009003	0.017395	-0.031891	0.12222	0.028992	-0.048065	0.029602	0.20966	0.007477	-0.025482	0.20599	0.35553	0.004883	-0.006561	-1.7551	-0.22812	-0.084381	-0.26382	-0.38605	0.12192	-0.11124	-0.10773	-0.069885	0.050659	-0.029907	0.23636	-0.027161	-0.002441	-0.000916
30.281	0.021973	0.83298	-0.20798	0.026703	0.00824	-0.027771	0.22888	0.024567	-0.05249	0.038452	-0.016022	0.008392	-0.006256	0.1828	-0.65628	0.004883	0.013428	-1.6666	0.009918	-0.067444	-0.11414	-0.42557	0.22171	-0.18036	-0.15976	-0.16419	0.11017	-0.072784	0.13855	-0.02655	-0.001526	0.003052
